<svg xmlns="http://www.w3.org/2000/svg" viewBox="0 0 64 64" width="64" height="64">
  <rect width="64" height="64" rx="12" fill="#0D1117"></rect>

  <!-- Stylized R -->
  <path d="M10 20 H22 A6 6 0 0 1 22 32 H10 Z M22 32 L26 44 H20 L16 32 Z" fill="#00FFC2"></path>

  <!-- Stylized M -->
  <path d="M28 44 V20 H32 L34 28 L36 20 H40 V44 H36 V30 L34 36 L32 30 V44 Z" fill="#00FFC2"></path>

  <!-- Stylized B -->
  <path d="M44 20 H52 A4 4 0 0 1 52 30 H44 Z M44 32 H52 A4 4 0 0 1 52 42 H44 Z" fill="#00FFC2"></path>
</svg>
